<mxfile host="app.diagrams.net" modified="2021-12-07T18:55:11.138Z" agent="5.0 (Windows NT 10.0; Win64; x64) AppleWebKit/537.36 (KHTML, like Gecko) Chrome/96.0.4664.45 Safari/537.36" etag="1zdl4Rpp_DB78WgcTPGx" version="15.8.8" type="github">
  <diagram id="C5RBs43oDa-KdzZeNtuy" name="Page-1">
    <mxGraphModel dx="1673" dy="896" grid="0" gridSize="10" guides="1" tooltips="1" connect="1" arrows="1" fold="1" page="1" pageScale="1" pageWidth="1200" pageHeight="1600" background="none" math="0" shadow="0">
      <root>
        <mxCell id="WIyWlLk6GJQsqaUBKTNV-0" />
        <mxCell id="WIyWlLk6GJQsqaUBKTNV-1" parent="WIyWlLk6GJQsqaUBKTNV-0" />
        <mxCell id="zkfFHV4jXpPFQw0GAbJ--0" value="users" style="swimlane;fontStyle=2;align=center;verticalAlign=top;childLayout=stackLayout;horizontal=1;startSize=26;horizontalStack=0;resizeParent=1;resizeLast=0;collapsible=1;marginBottom=0;rounded=0;shadow=0;strokeWidth=1;fontFamily=GOST type A Regular;fontSource=https%3A%2F%2Fwebfonts.pro%2Flight-fonts%2F123-gost_type_a.html;" parent="WIyWlLk6GJQsqaUBKTNV-1" vertex="1">
          <mxGeometry x="140" y="116" width="160" height="182" as="geometry">
            <mxRectangle x="230" y="140" width="160" height="26" as="alternateBounds" />
          </mxGeometry>
        </mxCell>
        <mxCell id="zkfFHV4jXpPFQw0GAbJ--1" value="id" style="text;align=left;verticalAlign=top;spacingLeft=4;spacingRight=4;overflow=hidden;rotatable=0;points=[[0,0.5],[1,0.5]];portConstraint=eastwest;fontFamily=GOST type A Regular;fontSource=https%3A%2F%2Fwebfonts.pro%2Flight-fonts%2F123-gost_type_a.html;" parent="zkfFHV4jXpPFQw0GAbJ--0" vertex="1">
          <mxGeometry y="26" width="160" height="26" as="geometry" />
        </mxCell>
        <mxCell id="zkfFHV4jXpPFQw0GAbJ--2" value="login&#xa;" style="text;align=left;verticalAlign=top;spacingLeft=4;spacingRight=4;overflow=hidden;rotatable=0;points=[[0,0.5],[1,0.5]];portConstraint=eastwest;rounded=0;shadow=0;html=0;fontFamily=GOST type A Regular;fontSource=https%3A%2F%2Fwebfonts.pro%2Flight-fonts%2F123-gost_type_a.html;" parent="zkfFHV4jXpPFQw0GAbJ--0" vertex="1">
          <mxGeometry y="52" width="160" height="26" as="geometry" />
        </mxCell>
        <mxCell id="zkfFHV4jXpPFQw0GAbJ--3" value="pass" style="text;align=left;verticalAlign=top;spacingLeft=4;spacingRight=4;overflow=hidden;rotatable=0;points=[[0,0.5],[1,0.5]];portConstraint=eastwest;rounded=0;shadow=0;html=0;fontFamily=GOST type A Regular;fontSource=https%3A%2F%2Fwebfonts.pro%2Flight-fonts%2F123-gost_type_a.html;" parent="zkfFHV4jXpPFQw0GAbJ--0" vertex="1">
          <mxGeometry y="78" width="160" height="26" as="geometry" />
        </mxCell>
        <mxCell id="x8cH7TtN86eXFYDbmNAZ-0" value="name" style="text;align=left;verticalAlign=top;spacingLeft=4;spacingRight=4;overflow=hidden;rotatable=0;points=[[0,0.5],[1,0.5]];portConstraint=eastwest;rounded=0;shadow=0;html=0;fontFamily=GOST type A Regular;fontSource=https%3A%2F%2Fwebfonts.pro%2Flight-fonts%2F123-gost_type_a.html;" parent="zkfFHV4jXpPFQw0GAbJ--0" vertex="1">
          <mxGeometry y="104" width="160" height="26" as="geometry" />
        </mxCell>
        <mxCell id="x8cH7TtN86eXFYDbmNAZ-2" value="online" style="text;align=left;verticalAlign=top;spacingLeft=4;spacingRight=4;overflow=hidden;rotatable=0;points=[[0,0.5],[1,0.5]];portConstraint=eastwest;rounded=0;shadow=0;html=0;fontFamily=GOST type A Regular;fontSource=https%3A%2F%2Fwebfonts.pro%2Flight-fonts%2F123-gost_type_a.html;" parent="zkfFHV4jXpPFQw0GAbJ--0" vertex="1">
          <mxGeometry y="130" width="160" height="26" as="geometry" />
        </mxCell>
        <mxCell id="x8cH7TtN86eXFYDbmNAZ-4" value="admin" style="text;align=left;verticalAlign=top;spacingLeft=4;spacingRight=4;overflow=hidden;rotatable=0;points=[[0,0.5],[1,0.5]];portConstraint=eastwest;rounded=0;shadow=0;html=0;fontFamily=GOST type A Regular;fontSource=https%3A%2F%2Fwebfonts.pro%2Flight-fonts%2F123-gost_type_a.html;" parent="zkfFHV4jXpPFQw0GAbJ--0" vertex="1">
          <mxGeometry y="156" width="160" height="26" as="geometry" />
        </mxCell>
        <mxCell id="x8cH7TtN86eXFYDbmNAZ-5" value="notification" style="swimlane;fontStyle=2;align=center;verticalAlign=top;childLayout=stackLayout;horizontal=1;startSize=26;horizontalStack=0;resizeParent=1;resizeLast=0;collapsible=1;marginBottom=0;rounded=0;shadow=0;strokeWidth=1;fontFamily=GOST type A Regular;fontSource=https%3A%2F%2Fwebfonts.pro%2Flight-fonts%2F123-gost_type_a.html;" parent="WIyWlLk6GJQsqaUBKTNV-1" vertex="1">
          <mxGeometry x="140" y="356" width="160" height="208" as="geometry">
            <mxRectangle x="230" y="140" width="160" height="26" as="alternateBounds" />
          </mxGeometry>
        </mxCell>
        <mxCell id="x8cH7TtN86eXFYDbmNAZ-6" value="id" style="text;align=left;verticalAlign=top;spacingLeft=4;spacingRight=4;overflow=hidden;rotatable=0;points=[[0,0.5],[1,0.5]];portConstraint=eastwest;fontFamily=GOST type A Regular;fontSource=https%3A%2F%2Fwebfonts.pro%2Flight-fonts%2F123-gost_type_a.html;" parent="x8cH7TtN86eXFYDbmNAZ-5" vertex="1">
          <mxGeometry y="26" width="160" height="26" as="geometry" />
        </mxCell>
        <mxCell id="x8cH7TtN86eXFYDbmNAZ-7" value="userid" style="text;align=left;verticalAlign=top;spacingLeft=4;spacingRight=4;overflow=hidden;rotatable=0;points=[[0,0.5],[1,0.5]];portConstraint=eastwest;rounded=0;shadow=0;html=0;fontFamily=GOST type A Regular;fontSource=https%3A%2F%2Fwebfonts.pro%2Flight-fonts%2F123-gost_type_a.html;" parent="x8cH7TtN86eXFYDbmNAZ-5" vertex="1">
          <mxGeometry y="52" width="160" height="26" as="geometry" />
        </mxCell>
        <mxCell id="x8cH7TtN86eXFYDbmNAZ-8" value="username" style="text;align=left;verticalAlign=top;spacingLeft=4;spacingRight=4;overflow=hidden;rotatable=0;points=[[0,0.5],[1,0.5]];portConstraint=eastwest;rounded=0;shadow=0;html=0;fontFamily=GOST type A Regular;fontSource=https%3A%2F%2Fwebfonts.pro%2Flight-fonts%2F123-gost_type_a.html;" parent="x8cH7TtN86eXFYDbmNAZ-5" vertex="1">
          <mxGeometry y="78" width="160" height="26" as="geometry" />
        </mxCell>
        <mxCell id="x8cH7TtN86eXFYDbmNAZ-9" value="userlogin" style="text;align=left;verticalAlign=top;spacingLeft=4;spacingRight=4;overflow=hidden;rotatable=0;points=[[0,0.5],[1,0.5]];portConstraint=eastwest;rounded=0;shadow=0;html=0;fontFamily=GOST type A Regular;fontSource=https%3A%2F%2Fwebfonts.pro%2Flight-fonts%2F123-gost_type_a.html;" parent="x8cH7TtN86eXFYDbmNAZ-5" vertex="1">
          <mxGeometry y="104" width="160" height="26" as="geometry" />
        </mxCell>
        <mxCell id="x8cH7TtN86eXFYDbmNAZ-10" value="userphone" style="text;align=left;verticalAlign=top;spacingLeft=4;spacingRight=4;overflow=hidden;rotatable=0;points=[[0,0.5],[1,0.5]];portConstraint=eastwest;rounded=0;shadow=0;html=0;fontFamily=GOST type A Regular;fontSource=https%3A%2F%2Fwebfonts.pro%2Flight-fonts%2F123-gost_type_a.html;" parent="x8cH7TtN86eXFYDbmNAZ-5" vertex="1">
          <mxGeometry y="130" width="160" height="26" as="geometry" />
        </mxCell>
        <mxCell id="x8cH7TtN86eXFYDbmNAZ-11" value="namewishtype" style="text;align=left;verticalAlign=top;spacingLeft=4;spacingRight=4;overflow=hidden;rotatable=0;points=[[0,0.5],[1,0.5]];portConstraint=eastwest;rounded=0;shadow=0;html=0;fontFamily=GOST type A Regular;fontSource=https%3A%2F%2Fwebfonts.pro%2Flight-fonts%2F123-gost_type_a.html;" parent="x8cH7TtN86eXFYDbmNAZ-5" vertex="1">
          <mxGeometry y="156" width="160" height="26" as="geometry" />
        </mxCell>
        <mxCell id="x8cH7TtN86eXFYDbmNAZ-13" value="iscompleted" style="text;align=left;verticalAlign=top;spacingLeft=4;spacingRight=4;overflow=hidden;rotatable=0;points=[[0,0.5],[1,0.5]];portConstraint=eastwest;rounded=0;shadow=0;html=0;fontFamily=GOST type A Regular;fontSource=https%3A%2F%2Fwebfonts.pro%2Flight-fonts%2F123-gost_type_a.html;" parent="x8cH7TtN86eXFYDbmNAZ-5" vertex="1">
          <mxGeometry y="182" width="160" height="26" as="geometry" />
        </mxCell>
        <mxCell id="x8cH7TtN86eXFYDbmNAZ-14" value="" style="endArrow=open;shadow=0;strokeWidth=1;rounded=0;endFill=1;edgeStyle=elbowEdgeStyle;elbow=vertical;exitX=0;exitY=0.5;exitDx=0;exitDy=0;entryX=0;entryY=0.5;entryDx=0;entryDy=0;fontFamily=GOST type A Regular;fontSource=https%3A%2F%2Fwebfonts.pro%2Flight-fonts%2F123-gost_type_a.html;" parent="WIyWlLk6GJQsqaUBKTNV-1" source="zkfFHV4jXpPFQw0GAbJ--1" target="x8cH7TtN86eXFYDbmNAZ-7" edge="1">
          <mxGeometry x="0.5" y="41" relative="1" as="geometry">
            <mxPoint x="310" y="217" as="sourcePoint" />
            <mxPoint x="438" y="217" as="targetPoint" />
            <mxPoint x="-40" y="32" as="offset" />
            <Array as="points">
              <mxPoint x="70" y="286" />
            </Array>
          </mxGeometry>
        </mxCell>
        <mxCell id="x8cH7TtN86eXFYDbmNAZ-15" value="1" style="resizable=0;align=left;verticalAlign=bottom;labelBackgroundColor=none;fontSize=12;fontFamily=GOST type A Regular;fontSource=https%3A%2F%2Fwebfonts.pro%2Flight-fonts%2F123-gost_type_a.html;" parent="x8cH7TtN86eXFYDbmNAZ-14" connectable="0" vertex="1">
          <mxGeometry x="-1" relative="1" as="geometry">
            <mxPoint x="-30" y="-9" as="offset" />
          </mxGeometry>
        </mxCell>
        <mxCell id="x8cH7TtN86eXFYDbmNAZ-16" value="0..N" style="resizable=0;align=right;verticalAlign=bottom;labelBackgroundColor=none;fontSize=12;fontFamily=GOST type A Regular;fontSource=https%3A%2F%2Fwebfonts.pro%2Flight-fonts%2F123-gost_type_a.html;" parent="x8cH7TtN86eXFYDbmNAZ-14" connectable="0" vertex="1">
          <mxGeometry x="1" relative="1" as="geometry">
            <mxPoint x="-10" y="-5" as="offset" />
          </mxGeometry>
        </mxCell>
        <mxCell id="x8cH7TtN86eXFYDbmNAZ-25" value="orders" style="swimlane;fontStyle=2;align=center;verticalAlign=top;childLayout=stackLayout;horizontal=1;startSize=26;horizontalStack=0;resizeParent=1;resizeLast=0;collapsible=1;marginBottom=0;rounded=0;shadow=0;strokeWidth=1;fontFamily=GOST type A Regular;fontSource=https%3A%2F%2Fwebfonts.pro%2Flight-fonts%2F123-gost_type_a.html;" parent="WIyWlLk6GJQsqaUBKTNV-1" vertex="1">
          <mxGeometry x="430" y="90" width="160" height="220" as="geometry">
            <mxRectangle x="230" y="140" width="160" height="26" as="alternateBounds" />
          </mxGeometry>
        </mxCell>
        <mxCell id="x8cH7TtN86eXFYDbmNAZ-26" value="id" style="text;align=left;verticalAlign=top;spacingLeft=4;spacingRight=4;overflow=hidden;rotatable=0;points=[[0,0.5],[1,0.5]];portConstraint=eastwest;fontFamily=GOST type A Regular;fontSource=https%3A%2F%2Fwebfonts.pro%2Flight-fonts%2F123-gost_type_a.html;" parent="x8cH7TtN86eXFYDbmNAZ-25" vertex="1">
          <mxGeometry y="26" width="160" height="26" as="geometry" />
        </mxCell>
        <mxCell id="x8cH7TtN86eXFYDbmNAZ-27" value="parrotid (alternative cageid)" style="text;align=left;verticalAlign=top;spacingLeft=4;spacingRight=4;overflow=hidden;rotatable=0;points=[[0,0.5],[1,0.5]];portConstraint=eastwest;rounded=0;shadow=0;html=0;fontFamily=GOST type A Regular;fontSource=https%3A%2F%2Fwebfonts.pro%2Flight-fonts%2F123-gost_type_a.html;" parent="x8cH7TtN86eXFYDbmNAZ-25" vertex="1">
          <mxGeometry y="52" width="160" height="26" as="geometry" />
        </mxCell>
        <mxCell id="x8cH7TtN86eXFYDbmNAZ-28" value="userid " style="text;align=left;verticalAlign=top;spacingLeft=4;spacingRight=4;overflow=hidden;rotatable=0;points=[[0,0.5],[1,0.5]];portConstraint=eastwest;rounded=0;shadow=0;html=0;fontFamily=GOST type A Regular;fontSource=https%3A%2F%2Fwebfonts.pro%2Flight-fonts%2F123-gost_type_a.html;" parent="x8cH7TtN86eXFYDbmNAZ-25" vertex="1">
          <mxGeometry y="78" width="160" height="26" as="geometry" />
        </mxCell>
        <mxCell id="x8cH7TtN86eXFYDbmNAZ-29" value="cageid (alternative parrotid)" style="text;align=left;verticalAlign=top;spacingLeft=4;spacingRight=4;overflow=hidden;rotatable=0;points=[[0,0.5],[1,0.5]];portConstraint=eastwest;rounded=0;shadow=0;html=0;fontFamily=GOST type A Regular;fontSource=https%3A%2F%2Fwebfonts.pro%2Flight-fonts%2F123-gost_type_a.html;" parent="x8cH7TtN86eXFYDbmNAZ-25" vertex="1">
          <mxGeometry y="104" width="160" height="26" as="geometry" />
        </mxCell>
        <mxCell id="x8cH7TtN86eXFYDbmNAZ-30" value="price " style="text;align=left;verticalAlign=top;spacingLeft=4;spacingRight=4;overflow=hidden;rotatable=0;points=[[0,0.5],[1,0.5]];portConstraint=eastwest;rounded=0;shadow=0;html=0;fontFamily=GOST type A Regular;fontSource=https%3A%2F%2Fwebfonts.pro%2Flight-fonts%2F123-gost_type_a.html;" parent="x8cH7TtN86eXFYDbmNAZ-25" vertex="1">
          <mxGeometry y="130" width="160" height="26" as="geometry" />
        </mxCell>
        <mxCell id="x8cH7TtN86eXFYDbmNAZ-32" value="isfinished" style="text;align=left;verticalAlign=top;spacingLeft=4;spacingRight=4;overflow=hidden;rotatable=0;points=[[0,0.5],[1,0.5]];portConstraint=eastwest;rounded=0;shadow=0;html=0;fontFamily=GOST type A Regular;fontSource=https%3A%2F%2Fwebfonts.pro%2Flight-fonts%2F123-gost_type_a.html;" parent="x8cH7TtN86eXFYDbmNAZ-25" vertex="1">
          <mxGeometry y="156" width="160" height="26" as="geometry" />
        </mxCell>
        <mxCell id="x8cH7TtN86eXFYDbmNAZ-35" value="isaccepted" style="text;align=left;verticalAlign=top;spacingLeft=4;spacingRight=4;overflow=hidden;rotatable=0;points=[[0,0.5],[1,0.5]];portConstraint=eastwest;rounded=0;shadow=0;html=0;fontFamily=GOST type A Regular;fontSource=https%3A%2F%2Fwebfonts.pro%2Flight-fonts%2F123-gost_type_a.html;" parent="x8cH7TtN86eXFYDbmNAZ-25" vertex="1">
          <mxGeometry y="182" width="160" height="26" as="geometry" />
        </mxCell>
        <mxCell id="x8cH7TtN86eXFYDbmNAZ-39" value="" style="endArrow=open;shadow=0;strokeWidth=1;rounded=0;endFill=1;edgeStyle=elbowEdgeStyle;elbow=vertical;exitX=1;exitY=0.5;exitDx=0;exitDy=0;entryX=0;entryY=0.5;entryDx=0;entryDy=0;fontFamily=GOST type A Regular;fontSource=https%3A%2F%2Fwebfonts.pro%2Flight-fonts%2F123-gost_type_a.html;" parent="WIyWlLk6GJQsqaUBKTNV-1" source="zkfFHV4jXpPFQw0GAbJ--1" target="x8cH7TtN86eXFYDbmNAZ-28" edge="1">
          <mxGeometry x="0.5" y="41" relative="1" as="geometry">
            <mxPoint x="310" y="165" as="sourcePoint" />
            <mxPoint x="390" y="217" as="targetPoint" />
            <mxPoint x="-40" y="32" as="offset" />
            <Array as="points" />
          </mxGeometry>
        </mxCell>
        <mxCell id="x8cH7TtN86eXFYDbmNAZ-40" value="1" style="resizable=0;align=left;verticalAlign=bottom;labelBackgroundColor=none;fontSize=12;fontFamily=GOST type A Regular;fontSource=https%3A%2F%2Fwebfonts.pro%2Flight-fonts%2F123-gost_type_a.html;" parent="x8cH7TtN86eXFYDbmNAZ-39" connectable="0" vertex="1">
          <mxGeometry x="-1" relative="1" as="geometry">
            <mxPoint x="10" y="-9" as="offset" />
          </mxGeometry>
        </mxCell>
        <mxCell id="x8cH7TtN86eXFYDbmNAZ-43" value="0..N" style="resizable=0;align=right;verticalAlign=bottom;labelBackgroundColor=none;fontSize=12;fontFamily=GOST type A Regular;fontSource=https%3A%2F%2Fwebfonts.pro%2Flight-fonts%2F123-gost_type_a.html;" parent="WIyWlLk6GJQsqaUBKTNV-1" connectable="0" vertex="1">
          <mxGeometry x="420" y="176" as="geometry" />
        </mxCell>
        <mxCell id="x8cH7TtN86eXFYDbmNAZ-44" value="cages" style="swimlane;fontStyle=2;align=center;verticalAlign=top;childLayout=stackLayout;horizontal=1;startSize=26;horizontalStack=0;resizeParent=1;resizeLast=0;collapsible=1;marginBottom=0;rounded=0;shadow=0;strokeWidth=1;fontFamily=GOST type A Regular;fontSource=https%3A%2F%2Fwebfonts.pro%2Flight-fonts%2F123-gost_type_a.html;" parent="WIyWlLk6GJQsqaUBKTNV-1" vertex="1">
          <mxGeometry x="430" y="386" width="160" height="234" as="geometry">
            <mxRectangle x="230" y="140" width="160" height="26" as="alternateBounds" />
          </mxGeometry>
        </mxCell>
        <mxCell id="x8cH7TtN86eXFYDbmNAZ-45" value="id" style="text;align=left;verticalAlign=top;spacingLeft=4;spacingRight=4;overflow=hidden;rotatable=0;points=[[0,0.5],[1,0.5]];portConstraint=eastwest;fontFamily=GOST type A Regular;fontSource=https%3A%2F%2Fwebfonts.pro%2Flight-fonts%2F123-gost_type_a.html;" parent="x8cH7TtN86eXFYDbmNAZ-44" vertex="1">
          <mxGeometry y="26" width="160" height="26" as="geometry" />
        </mxCell>
        <mxCell id="x8cH7TtN86eXFYDbmNAZ-46" value="name" style="text;align=left;verticalAlign=top;spacingLeft=4;spacingRight=4;overflow=hidden;rotatable=0;points=[[0,0.5],[1,0.5]];portConstraint=eastwest;rounded=0;shadow=0;html=0;fontFamily=GOST type A Regular;fontSource=https%3A%2F%2Fwebfonts.pro%2Flight-fonts%2F123-gost_type_a.html;" parent="x8cH7TtN86eXFYDbmNAZ-44" vertex="1">
          <mxGeometry y="52" width="160" height="26" as="geometry" />
        </mxCell>
        <mxCell id="x8cH7TtN86eXFYDbmNAZ-47" value="typeid" style="text;align=left;verticalAlign=top;spacingLeft=4;spacingRight=4;overflow=hidden;rotatable=0;points=[[0,0.5],[1,0.5]];portConstraint=eastwest;rounded=0;shadow=0;html=0;fontFamily=GOST type A Regular;fontSource=https%3A%2F%2Fwebfonts.pro%2Flight-fonts%2F123-gost_type_a.html;" parent="x8cH7TtN86eXFYDbmNAZ-44" vertex="1">
          <mxGeometry y="78" width="160" height="26" as="geometry" />
        </mxCell>
        <mxCell id="x8cH7TtN86eXFYDbmNAZ-48" value="typmename" style="text;align=left;verticalAlign=top;spacingLeft=4;spacingRight=4;overflow=hidden;rotatable=0;points=[[0,0.5],[1,0.5]];portConstraint=eastwest;rounded=0;shadow=0;html=0;fontFamily=GOST type A Regular;fontSource=https%3A%2F%2Fwebfonts.pro%2Flight-fonts%2F123-gost_type_a.html;" parent="x8cH7TtN86eXFYDbmNAZ-44" vertex="1">
          <mxGeometry y="104" width="160" height="26" as="geometry" />
        </mxCell>
        <mxCell id="x8cH7TtN86eXFYDbmNAZ-49" value="price" style="text;align=left;verticalAlign=top;spacingLeft=4;spacingRight=4;overflow=hidden;rotatable=0;points=[[0,0.5],[1,0.5]];portConstraint=eastwest;rounded=0;shadow=0;html=0;fontFamily=GOST type A Regular;fontSource=https%3A%2F%2Fwebfonts.pro%2Flight-fonts%2F123-gost_type_a.html;" parent="x8cH7TtN86eXFYDbmNAZ-44" vertex="1">
          <mxGeometry y="130" width="160" height="26" as="geometry" />
        </mxCell>
        <mxCell id="x8cH7TtN86eXFYDbmNAZ-50" value="img" style="text;align=left;verticalAlign=top;spacingLeft=4;spacingRight=4;overflow=hidden;rotatable=0;points=[[0,0.5],[1,0.5]];portConstraint=eastwest;rounded=0;shadow=0;html=0;fontFamily=GOST type A Regular;fontSource=https%3A%2F%2Fwebfonts.pro%2Flight-fonts%2F123-gost_type_a.html;" parent="x8cH7TtN86eXFYDbmNAZ-44" vertex="1">
          <mxGeometry y="156" width="160" height="26" as="geometry" />
        </mxCell>
        <mxCell id="x8cH7TtN86eXFYDbmNAZ-51" value="available" style="text;align=left;verticalAlign=top;spacingLeft=4;spacingRight=4;overflow=hidden;rotatable=0;points=[[0,0.5],[1,0.5]];portConstraint=eastwest;rounded=0;shadow=0;html=0;fontFamily=GOST type A Regular;fontSource=https%3A%2F%2Fwebfonts.pro%2Flight-fonts%2F123-gost_type_a.html;" parent="x8cH7TtN86eXFYDbmNAZ-44" vertex="1">
          <mxGeometry y="182" width="160" height="26" as="geometry" />
        </mxCell>
        <mxCell id="x8cH7TtN86eXFYDbmNAZ-54" value="amount" style="text;align=left;verticalAlign=top;spacingLeft=4;spacingRight=4;overflow=hidden;rotatable=0;points=[[0,0.5],[1,0.5]];portConstraint=eastwest;rounded=0;shadow=0;html=0;fontFamily=GOST type A Regular;fontSource=https%3A%2F%2Fwebfonts.pro%2Flight-fonts%2F123-gost_type_a.html;" parent="x8cH7TtN86eXFYDbmNAZ-44" vertex="1">
          <mxGeometry y="208" width="160" height="26" as="geometry" />
        </mxCell>
        <mxCell id="x8cH7TtN86eXFYDbmNAZ-57" value="" style="endArrow=open;shadow=0;strokeWidth=1;rounded=0;endFill=1;edgeStyle=elbowEdgeStyle;elbow=vertical;exitX=0;exitY=0.5;exitDx=0;exitDy=0;entryX=0;entryY=0.5;entryDx=0;entryDy=0;fontFamily=GOST type A Regular;fontSource=https%3A%2F%2Fwebfonts.pro%2Flight-fonts%2F123-gost_type_a.html;" parent="WIyWlLk6GJQsqaUBKTNV-1" source="x8cH7TtN86eXFYDbmNAZ-45" target="x8cH7TtN86eXFYDbmNAZ-29" edge="1">
          <mxGeometry x="0.5" y="41" relative="1" as="geometry">
            <mxPoint x="380" y="236" as="sourcePoint" />
            <mxPoint x="380" y="502" as="targetPoint" />
            <mxPoint x="-40" y="32" as="offset" />
            <Array as="points">
              <mxPoint x="350" y="316" />
            </Array>
          </mxGeometry>
        </mxCell>
        <mxCell id="x8cH7TtN86eXFYDbmNAZ-58" value="0..1" style="resizable=0;align=left;verticalAlign=bottom;labelBackgroundColor=none;fontSize=12;fontFamily=GOST type A Regular;fontSource=https%3A%2F%2Fwebfonts.pro%2Flight-fonts%2F123-gost_type_a.html;" parent="x8cH7TtN86eXFYDbmNAZ-57" connectable="0" vertex="1">
          <mxGeometry x="-1" relative="1" as="geometry">
            <mxPoint x="-30" y="-9" as="offset" />
          </mxGeometry>
        </mxCell>
        <mxCell id="x8cH7TtN86eXFYDbmNAZ-59" value="0..N" style="resizable=0;align=right;verticalAlign=bottom;labelBackgroundColor=none;fontSize=12;fontFamily=GOST type A Regular;fontSource=https%3A%2F%2Fwebfonts.pro%2Flight-fonts%2F123-gost_type_a.html;" parent="x8cH7TtN86eXFYDbmNAZ-57" connectable="0" vertex="1">
          <mxGeometry x="1" relative="1" as="geometry">
            <mxPoint x="-10" y="29" as="offset" />
          </mxGeometry>
        </mxCell>
        <mxCell id="x8cH7TtN86eXFYDbmNAZ-61" value="parrots" style="swimlane;fontStyle=2;align=center;verticalAlign=top;childLayout=stackLayout;horizontal=1;startSize=26;horizontalStack=0;resizeParent=1;resizeLast=0;collapsible=1;marginBottom=0;rounded=0;shadow=0;strokeWidth=1;fontFamily=GOST type A Regular;fontSource=https%3A%2F%2Fwebfonts.pro%2Flight-fonts%2F123-gost_type_a.html;" parent="WIyWlLk6GJQsqaUBKTNV-1" vertex="1">
          <mxGeometry x="730" y="116" width="160" height="344" as="geometry">
            <mxRectangle x="230" y="140" width="160" height="26" as="alternateBounds" />
          </mxGeometry>
        </mxCell>
        <mxCell id="x8cH7TtN86eXFYDbmNAZ-62" value="id" style="text;align=left;verticalAlign=top;spacingLeft=4;spacingRight=4;overflow=hidden;rotatable=0;points=[[0,0.5],[1,0.5]];portConstraint=eastwest;fontFamily=GOST type A Regular;fontSource=https%3A%2F%2Fwebfonts.pro%2Flight-fonts%2F123-gost_type_a.html;" parent="x8cH7TtN86eXFYDbmNAZ-61" vertex="1">
          <mxGeometry y="26" width="160" height="26" as="geometry" />
        </mxCell>
        <mxCell id="x8cH7TtN86eXFYDbmNAZ-63" value="name" style="text;align=left;verticalAlign=top;spacingLeft=4;spacingRight=4;overflow=hidden;rotatable=0;points=[[0,0.5],[1,0.5]];portConstraint=eastwest;rounded=0;shadow=0;html=0;fontFamily=GOST type A Regular;fontSource=https%3A%2F%2Fwebfonts.pro%2Flight-fonts%2F123-gost_type_a.html;" parent="x8cH7TtN86eXFYDbmNAZ-61" vertex="1">
          <mxGeometry y="52" width="160" height="26" as="geometry" />
        </mxCell>
        <mxCell id="x8cH7TtN86eXFYDbmNAZ-64" value="typename" style="text;align=left;verticalAlign=top;spacingLeft=4;spacingRight=4;overflow=hidden;rotatable=0;points=[[0,0.5],[1,0.5]];portConstraint=eastwest;rounded=0;shadow=0;html=0;fontFamily=GOST type A Regular;fontSource=https%3A%2F%2Fwebfonts.pro%2Flight-fonts%2F123-gost_type_a.html;" parent="x8cH7TtN86eXFYDbmNAZ-61" vertex="1">
          <mxGeometry y="78" width="160" height="26" as="geometry" />
        </mxCell>
        <mxCell id="x8cH7TtN86eXFYDbmNAZ-65" value="providername" style="text;align=left;verticalAlign=top;spacingLeft=4;spacingRight=4;overflow=hidden;rotatable=0;points=[[0,0.5],[1,0.5]];portConstraint=eastwest;rounded=0;shadow=0;html=0;fontFamily=GOST type A Regular;fontSource=https%3A%2F%2Fwebfonts.pro%2Flight-fonts%2F123-gost_type_a.html;" parent="x8cH7TtN86eXFYDbmNAZ-61" vertex="1">
          <mxGeometry y="104" width="160" height="26" as="geometry" />
        </mxCell>
        <mxCell id="x8cH7TtN86eXFYDbmNAZ-66" value="info" style="text;align=left;verticalAlign=top;spacingLeft=4;spacingRight=4;overflow=hidden;rotatable=0;points=[[0,0.5],[1,0.5]];portConstraint=eastwest;rounded=0;shadow=0;html=0;fontFamily=GOST type A Regular;fontSource=https%3A%2F%2Fwebfonts.pro%2Flight-fonts%2F123-gost_type_a.html;" parent="x8cH7TtN86eXFYDbmNAZ-61" vertex="1">
          <mxGeometry y="130" width="160" height="26" as="geometry" />
        </mxCell>
        <mxCell id="x8cH7TtN86eXFYDbmNAZ-67" value="img" style="text;align=left;verticalAlign=top;spacingLeft=4;spacingRight=4;overflow=hidden;rotatable=0;points=[[0,0.5],[1,0.5]];portConstraint=eastwest;rounded=0;shadow=0;html=0;fontFamily=GOST type A Regular;fontSource=https%3A%2F%2Fwebfonts.pro%2Flight-fonts%2F123-gost_type_a.html;" parent="x8cH7TtN86eXFYDbmNAZ-61" vertex="1">
          <mxGeometry y="156" width="160" height="26" as="geometry" />
        </mxCell>
        <mxCell id="x8cH7TtN86eXFYDbmNAZ-68" value="typesid" style="text;align=left;verticalAlign=top;spacingLeft=4;spacingRight=4;overflow=hidden;rotatable=0;points=[[0,0.5],[1,0.5]];portConstraint=eastwest;rounded=0;shadow=0;html=0;fontFamily=GOST type A Regular;fontSource=https%3A%2F%2Fwebfonts.pro%2Flight-fonts%2F123-gost_type_a.html;" parent="x8cH7TtN86eXFYDbmNAZ-61" vertex="1">
          <mxGeometry y="182" width="160" height="26" as="geometry" />
        </mxCell>
        <mxCell id="x8cH7TtN86eXFYDbmNAZ-69" value="size" style="text;align=left;verticalAlign=top;spacingLeft=4;spacingRight=4;overflow=hidden;rotatable=0;points=[[0,0.5],[1,0.5]];portConstraint=eastwest;rounded=0;shadow=0;html=0;fontFamily=GOST type A Regular;fontSource=https%3A%2F%2Fwebfonts.pro%2Flight-fonts%2F123-gost_type_a.html;" parent="x8cH7TtN86eXFYDbmNAZ-61" vertex="1">
          <mxGeometry y="208" width="160" height="26" as="geometry" />
        </mxCell>
        <mxCell id="x8cH7TtN86eXFYDbmNAZ-70" value="weight" style="text;align=left;verticalAlign=top;spacingLeft=4;spacingRight=4;overflow=hidden;rotatable=0;points=[[0,0.5],[1,0.5]];portConstraint=eastwest;rounded=0;shadow=0;html=0;fontFamily=GOST type A Regular;fontSource=https%3A%2F%2Fwebfonts.pro%2Flight-fonts%2F123-gost_type_a.html;" parent="x8cH7TtN86eXFYDbmNAZ-61" vertex="1">
          <mxGeometry y="234" width="160" height="26" as="geometry" />
        </mxCell>
        <mxCell id="x8cH7TtN86eXFYDbmNAZ-71" value="price" style="text;align=left;verticalAlign=top;spacingLeft=4;spacingRight=4;overflow=hidden;rotatable=0;points=[[0,0.5],[1,0.5]];portConstraint=eastwest;rounded=0;shadow=0;html=0;fontFamily=GOST type A Regular;fontSource=https%3A%2F%2Fwebfonts.pro%2Flight-fonts%2F123-gost_type_a.html;" parent="x8cH7TtN86eXFYDbmNAZ-61" vertex="1">
          <mxGeometry y="260" width="160" height="26" as="geometry" />
        </mxCell>
        <mxCell id="x8cH7TtN86eXFYDbmNAZ-73" value="available" style="text;align=left;verticalAlign=top;spacingLeft=4;spacingRight=4;overflow=hidden;rotatable=0;points=[[0,0.5],[1,0.5]];portConstraint=eastwest;rounded=0;shadow=0;html=0;fontFamily=GOST type A Regular;fontSource=https%3A%2F%2Fwebfonts.pro%2Flight-fonts%2F123-gost_type_a.html;" parent="x8cH7TtN86eXFYDbmNAZ-61" vertex="1">
          <mxGeometry y="286" width="160" height="26" as="geometry" />
        </mxCell>
        <mxCell id="x8cH7TtN86eXFYDbmNAZ-74" value="providerid" style="text;align=left;verticalAlign=top;spacingLeft=4;spacingRight=4;overflow=hidden;rotatable=0;points=[[0,0.5],[1,0.5]];portConstraint=eastwest;rounded=0;shadow=0;html=0;fontFamily=GOST type A Regular;fontSource=https%3A%2F%2Fwebfonts.pro%2Flight-fonts%2F123-gost_type_a.html;" parent="x8cH7TtN86eXFYDbmNAZ-61" vertex="1">
          <mxGeometry y="312" width="160" height="26" as="geometry" />
        </mxCell>
        <mxCell id="x8cH7TtN86eXFYDbmNAZ-79" value="" style="endArrow=open;shadow=0;strokeWidth=1;rounded=0;endFill=1;edgeStyle=elbowEdgeStyle;elbow=vertical;exitX=0;exitY=0.5;exitDx=0;exitDy=0;entryX=1;entryY=0.5;entryDx=0;entryDy=0;fontFamily=GOST type A Regular;fontSource=https%3A%2F%2Fwebfonts.pro%2Flight-fonts%2F123-gost_type_a.html;" parent="WIyWlLk6GJQsqaUBKTNV-1" source="x8cH7TtN86eXFYDbmNAZ-62" target="x8cH7TtN86eXFYDbmNAZ-27" edge="1">
          <mxGeometry x="0.5" y="41" relative="1" as="geometry">
            <mxPoint x="660" y="230" as="sourcePoint" />
            <mxPoint x="660" y="496" as="targetPoint" />
            <mxPoint x="-40" y="32" as="offset" />
            <Array as="points">
              <mxPoint x="710" y="155" />
            </Array>
          </mxGeometry>
        </mxCell>
        <mxCell id="x8cH7TtN86eXFYDbmNAZ-80" value="0..1" style="resizable=0;align=left;verticalAlign=bottom;labelBackgroundColor=none;fontSize=12;fontFamily=GOST type A Regular;fontSource=https%3A%2F%2Fwebfonts.pro%2Flight-fonts%2F123-gost_type_a.html;" parent="x8cH7TtN86eXFYDbmNAZ-79" connectable="0" vertex="1">
          <mxGeometry x="-1" relative="1" as="geometry">
            <mxPoint x="-30" y="-5" as="offset" />
          </mxGeometry>
        </mxCell>
        <mxCell id="x8cH7TtN86eXFYDbmNAZ-81" value="0..N" style="resizable=0;align=right;verticalAlign=bottom;labelBackgroundColor=none;fontSize=12;fontFamily=GOST type A Regular;fontSource=https%3A%2F%2Fwebfonts.pro%2Flight-fonts%2F123-gost_type_a.html;" parent="x8cH7TtN86eXFYDbmNAZ-79" connectable="0" vertex="1">
          <mxGeometry x="1" relative="1" as="geometry">
            <mxPoint x="30" y="-5" as="offset" />
          </mxGeometry>
        </mxCell>
        <mxCell id="x8cH7TtN86eXFYDbmNAZ-82" value="types" style="swimlane;fontStyle=2;align=center;verticalAlign=top;childLayout=stackLayout;horizontal=1;startSize=26;horizontalStack=0;resizeParent=1;resizeLast=0;collapsible=1;marginBottom=0;rounded=0;shadow=0;strokeWidth=1;fontFamily=GOST type A Regular;fontSource=https%3A%2F%2Fwebfonts.pro%2Flight-fonts%2F123-gost_type_a.html;" parent="WIyWlLk6GJQsqaUBKTNV-1" vertex="1">
          <mxGeometry x="730" y="510" width="160" height="110" as="geometry">
            <mxRectangle x="230" y="140" width="160" height="26" as="alternateBounds" />
          </mxGeometry>
        </mxCell>
        <mxCell id="x8cH7TtN86eXFYDbmNAZ-83" value="id" style="text;align=left;verticalAlign=top;spacingLeft=4;spacingRight=4;overflow=hidden;rotatable=0;points=[[0,0.5],[1,0.5]];portConstraint=eastwest;fontFamily=GOST type A Regular;fontSource=https%3A%2F%2Fwebfonts.pro%2Flight-fonts%2F123-gost_type_a.html;" parent="x8cH7TtN86eXFYDbmNAZ-82" vertex="1">
          <mxGeometry y="26" width="160" height="26" as="geometry" />
        </mxCell>
        <mxCell id="x8cH7TtN86eXFYDbmNAZ-84" value="name" style="text;align=left;verticalAlign=top;spacingLeft=4;spacingRight=4;overflow=hidden;rotatable=0;points=[[0,0.5],[1,0.5]];portConstraint=eastwest;rounded=0;shadow=0;html=0;fontFamily=GOST type A Regular;fontSource=https%3A%2F%2Fwebfonts.pro%2Flight-fonts%2F123-gost_type_a.html;" parent="x8cH7TtN86eXFYDbmNAZ-82" vertex="1">
          <mxGeometry y="52" width="160" height="26" as="geometry" />
        </mxCell>
        <mxCell id="x8cH7TtN86eXFYDbmNAZ-85" value="life" style="text;align=left;verticalAlign=top;spacingLeft=4;spacingRight=4;overflow=hidden;rotatable=0;points=[[0,0.5],[1,0.5]];portConstraint=eastwest;rounded=0;shadow=0;html=0;fontFamily=GOST type A Regular;fontSource=https%3A%2F%2Fwebfonts.pro%2Flight-fonts%2F123-gost_type_a.html;" parent="x8cH7TtN86eXFYDbmNAZ-82" vertex="1">
          <mxGeometry y="78" width="160" height="26" as="geometry" />
        </mxCell>
        <mxCell id="x8cH7TtN86eXFYDbmNAZ-91" value="" style="endArrow=open;shadow=0;strokeWidth=1;rounded=0;endFill=1;elbow=vertical;exitX=0;exitY=0.5;exitDx=0;exitDy=0;entryX=1;entryY=0.5;entryDx=0;entryDy=0;edgeStyle=orthogonalEdgeStyle;fontFamily=GOST type A Regular;fontSource=https%3A%2F%2Fwebfonts.pro%2Flight-fonts%2F123-gost_type_a.html;" parent="WIyWlLk6GJQsqaUBKTNV-1" source="x8cH7TtN86eXFYDbmNAZ-83" target="x8cH7TtN86eXFYDbmNAZ-47" edge="1">
          <mxGeometry x="0.5" y="41" relative="1" as="geometry">
            <mxPoint x="700" y="550" as="sourcePoint" />
            <mxPoint x="560" y="550" as="targetPoint" />
            <mxPoint x="-40" y="32" as="offset" />
            <Array as="points">
              <mxPoint x="730" y="560" />
              <mxPoint x="660" y="560" />
              <mxPoint x="660" y="477" />
            </Array>
          </mxGeometry>
        </mxCell>
        <mxCell id="x8cH7TtN86eXFYDbmNAZ-93" value="0..N" style="resizable=0;align=right;verticalAlign=bottom;labelBackgroundColor=none;fontSize=12;fontFamily=GOST type A Regular;fontSource=https%3A%2F%2Fwebfonts.pro%2Flight-fonts%2F123-gost_type_a.html;" parent="x8cH7TtN86eXFYDbmNAZ-91" connectable="0" vertex="1">
          <mxGeometry x="1" relative="1" as="geometry">
            <mxPoint x="30" y="-5" as="offset" />
          </mxGeometry>
        </mxCell>
        <mxCell id="x8cH7TtN86eXFYDbmNAZ-94" value="" style="endArrow=open;shadow=0;strokeWidth=1;rounded=0;endFill=1;elbow=vertical;entryX=0;entryY=0.5;entryDx=0;entryDy=0;edgeStyle=orthogonalEdgeStyle;fontFamily=GOST type A Regular;fontSource=https%3A%2F%2Fwebfonts.pro%2Flight-fonts%2F123-gost_type_a.html;" parent="WIyWlLk6GJQsqaUBKTNV-1" target="x8cH7TtN86eXFYDbmNAZ-68" edge="1">
          <mxGeometry x="0.5" y="41" relative="1" as="geometry">
            <mxPoint x="730" y="550" as="sourcePoint" />
            <mxPoint x="600" y="487" as="targetPoint" />
            <mxPoint x="-40" y="32" as="offset" />
            <Array as="points">
              <mxPoint x="730" y="550" />
              <mxPoint x="690" y="550" />
              <mxPoint x="690" y="311" />
            </Array>
          </mxGeometry>
        </mxCell>
        <mxCell id="x8cH7TtN86eXFYDbmNAZ-95" value="1" style="resizable=0;align=left;verticalAlign=bottom;labelBackgroundColor=none;fontSize=12;fontFamily=GOST type A Regular;fontSource=https%3A%2F%2Fwebfonts.pro%2Flight-fonts%2F123-gost_type_a.html;" parent="x8cH7TtN86eXFYDbmNAZ-94" connectable="0" vertex="1">
          <mxGeometry x="-1" relative="1" as="geometry">
            <mxPoint x="-20" y="-5" as="offset" />
          </mxGeometry>
        </mxCell>
        <mxCell id="x8cH7TtN86eXFYDbmNAZ-96" value="0..N" style="resizable=0;align=right;verticalAlign=bottom;labelBackgroundColor=none;fontSize=12;fontFamily=GOST type A Regular;fontSource=https%3A%2F%2Fwebfonts.pro%2Flight-fonts%2F123-gost_type_a.html;" parent="x8cH7TtN86eXFYDbmNAZ-94" connectable="0" vertex="1">
          <mxGeometry x="1" relative="1" as="geometry">
            <mxPoint x="-10" y="-5" as="offset" />
          </mxGeometry>
        </mxCell>
        <mxCell id="x8cH7TtN86eXFYDbmNAZ-98" value="providers" style="swimlane;fontStyle=2;align=center;verticalAlign=top;childLayout=stackLayout;horizontal=1;startSize=26;horizontalStack=0;resizeParent=1;resizeLast=0;collapsible=1;marginBottom=0;rounded=0;shadow=0;strokeWidth=1;fontFamily=GOST type A Regular;fontSource=https%3A%2F%2Fwebfonts.pro%2Flight-fonts%2F123-gost_type_a.html;" parent="WIyWlLk6GJQsqaUBKTNV-1" vertex="1">
          <mxGeometry x="1010" y="150" width="160" height="130" as="geometry">
            <mxRectangle x="230" y="140" width="160" height="26" as="alternateBounds" />
          </mxGeometry>
        </mxCell>
        <mxCell id="x8cH7TtN86eXFYDbmNAZ-99" value="id" style="text;align=left;verticalAlign=top;spacingLeft=4;spacingRight=4;overflow=hidden;rotatable=0;points=[[0,0.5],[1,0.5]];portConstraint=eastwest;fontFamily=GOST type A Regular;fontSource=https%3A%2F%2Fwebfonts.pro%2Flight-fonts%2F123-gost_type_a.html;" parent="x8cH7TtN86eXFYDbmNAZ-98" vertex="1">
          <mxGeometry y="26" width="160" height="26" as="geometry" />
        </mxCell>
        <mxCell id="x8cH7TtN86eXFYDbmNAZ-100" value="name" style="text;align=left;verticalAlign=top;spacingLeft=4;spacingRight=4;overflow=hidden;rotatable=0;points=[[0,0.5],[1,0.5]];portConstraint=eastwest;rounded=0;shadow=0;html=0;fontFamily=GOST type A Regular;fontSource=https%3A%2F%2Fwebfonts.pro%2Flight-fonts%2F123-gost_type_a.html;" parent="x8cH7TtN86eXFYDbmNAZ-98" vertex="1">
          <mxGeometry y="52" width="160" height="26" as="geometry" />
        </mxCell>
        <mxCell id="x8cH7TtN86eXFYDbmNAZ-101" value="info" style="text;align=left;verticalAlign=top;spacingLeft=4;spacingRight=4;overflow=hidden;rotatable=0;points=[[0,0.5],[1,0.5]];portConstraint=eastwest;rounded=0;shadow=0;html=0;fontFamily=GOST type A Regular;fontSource=https%3A%2F%2Fwebfonts.pro%2Flight-fonts%2F123-gost_type_a.html;" parent="x8cH7TtN86eXFYDbmNAZ-98" vertex="1">
          <mxGeometry y="78" width="160" height="26" as="geometry" />
        </mxCell>
        <mxCell id="x8cH7TtN86eXFYDbmNAZ-102" value="history" style="text;align=left;verticalAlign=top;spacingLeft=4;spacingRight=4;overflow=hidden;rotatable=0;points=[[0,0.5],[1,0.5]];portConstraint=eastwest;rounded=0;shadow=0;html=0;fontFamily=GOST type A Regular;fontSource=https%3A%2F%2Fwebfonts.pro%2Flight-fonts%2F123-gost_type_a.html;" parent="x8cH7TtN86eXFYDbmNAZ-98" vertex="1">
          <mxGeometry y="104" width="160" height="26" as="geometry" />
        </mxCell>
        <mxCell id="x8cH7TtN86eXFYDbmNAZ-103" value="" style="endArrow=open;shadow=0;strokeWidth=1;rounded=0;endFill=1;elbow=vertical;exitX=0;exitY=0.5;exitDx=0;exitDy=0;entryX=1;entryY=0.5;entryDx=0;entryDy=0;edgeStyle=orthogonalEdgeStyle;fontFamily=GOST type A Regular;fontSource=https%3A%2F%2Fwebfonts.pro%2Flight-fonts%2F123-gost_type_a.html;" parent="WIyWlLk6GJQsqaUBKTNV-1" source="x8cH7TtN86eXFYDbmNAZ-99" target="x8cH7TtN86eXFYDbmNAZ-74" edge="1">
          <mxGeometry x="0.5" y="41" relative="1" as="geometry">
            <mxPoint x="1020" y="298" as="sourcePoint" />
            <mxPoint x="880" y="226" as="targetPoint" />
            <mxPoint x="-40" y="32" as="offset" />
            <Array as="points">
              <mxPoint x="1010" y="190" />
              <mxPoint x="940" y="190" />
              <mxPoint x="940" y="441" />
            </Array>
          </mxGeometry>
        </mxCell>
        <mxCell id="x8cH7TtN86eXFYDbmNAZ-104" value="1" style="resizable=0;align=left;verticalAlign=bottom;labelBackgroundColor=none;fontSize=12;fontFamily=GOST type A Regular;fontSource=https%3A%2F%2Fwebfonts.pro%2Flight-fonts%2F123-gost_type_a.html;" parent="x8cH7TtN86eXFYDbmNAZ-103" connectable="0" vertex="1">
          <mxGeometry x="-1" relative="1" as="geometry">
            <mxPoint x="-20" y="-5" as="offset" />
          </mxGeometry>
        </mxCell>
        <mxCell id="x8cH7TtN86eXFYDbmNAZ-105" value="0..N" style="resizable=0;align=right;verticalAlign=bottom;labelBackgroundColor=none;fontSize=12;fontFamily=GOST type A Regular;fontSource=https%3A%2F%2Fwebfonts.pro%2Flight-fonts%2F123-gost_type_a.html;" parent="x8cH7TtN86eXFYDbmNAZ-103" connectable="0" vertex="1">
          <mxGeometry x="1" relative="1" as="geometry">
            <mxPoint x="30" y="-5" as="offset" />
          </mxGeometry>
        </mxCell>
        <mxCell id="x8cH7TtN86eXFYDbmNAZ-106" value="encyclopedia" style="swimlane;fontStyle=2;align=center;verticalAlign=top;childLayout=stackLayout;horizontal=1;startSize=26;horizontalStack=0;resizeParent=1;resizeLast=0;collapsible=1;marginBottom=0;rounded=0;shadow=0;strokeWidth=1;fontFamily=GOST type A Regular;fontSource=https%3A%2F%2Fwebfonts.pro%2Flight-fonts%2F123-gost_type_a.html;" parent="WIyWlLk6GJQsqaUBKTNV-1" vertex="1">
          <mxGeometry x="1020" y="450" width="160" height="156" as="geometry">
            <mxRectangle x="230" y="140" width="160" height="26" as="alternateBounds" />
          </mxGeometry>
        </mxCell>
        <mxCell id="x8cH7TtN86eXFYDbmNAZ-107" value="id" style="text;align=left;verticalAlign=top;spacingLeft=4;spacingRight=4;overflow=hidden;rotatable=0;points=[[0,0.5],[1,0.5]];portConstraint=eastwest;fontFamily=GOST type A Regular;fontSource=https%3A%2F%2Fwebfonts.pro%2Flight-fonts%2F123-gost_type_a.html;" parent="x8cH7TtN86eXFYDbmNAZ-106" vertex="1">
          <mxGeometry y="26" width="160" height="26" as="geometry" />
        </mxCell>
        <mxCell id="x8cH7TtN86eXFYDbmNAZ-108" value="typeid" style="text;align=left;verticalAlign=top;spacingLeft=4;spacingRight=4;overflow=hidden;rotatable=0;points=[[0,0.5],[1,0.5]];portConstraint=eastwest;rounded=0;shadow=0;html=0;fontFamily=GOST type A Regular;fontSource=https%3A%2F%2Fwebfonts.pro%2Flight-fonts%2F123-gost_type_a.html;" parent="x8cH7TtN86eXFYDbmNAZ-106" vertex="1">
          <mxGeometry y="52" width="160" height="26" as="geometry" />
        </mxCell>
        <mxCell id="x8cH7TtN86eXFYDbmNAZ-109" value="typename" style="text;align=left;verticalAlign=top;spacingLeft=4;spacingRight=4;overflow=hidden;rotatable=0;points=[[0,0.5],[1,0.5]];portConstraint=eastwest;rounded=0;shadow=0;html=0;fontFamily=GOST type A Regular;fontSource=https%3A%2F%2Fwebfonts.pro%2Flight-fonts%2F123-gost_type_a.html;" parent="x8cH7TtN86eXFYDbmNAZ-106" vertex="1">
          <mxGeometry y="78" width="160" height="26" as="geometry" />
        </mxCell>
        <mxCell id="x8cH7TtN86eXFYDbmNAZ-110" value="typelife" style="text;align=left;verticalAlign=top;spacingLeft=4;spacingRight=4;overflow=hidden;rotatable=0;points=[[0,0.5],[1,0.5]];portConstraint=eastwest;rounded=0;shadow=0;html=0;fontFamily=GOST type A Regular;fontSource=https%3A%2F%2Fwebfonts.pro%2Flight-fonts%2F123-gost_type_a.html;" parent="x8cH7TtN86eXFYDbmNAZ-106" vertex="1">
          <mxGeometry y="104" width="160" height="26" as="geometry" />
        </mxCell>
        <mxCell id="x8cH7TtN86eXFYDbmNAZ-111" value="description" style="text;align=left;verticalAlign=top;spacingLeft=4;spacingRight=4;overflow=hidden;rotatable=0;points=[[0,0.5],[1,0.5]];portConstraint=eastwest;rounded=0;shadow=0;html=0;fontFamily=GOST type A Regular;fontSource=https%3A%2F%2Fwebfonts.pro%2Flight-fonts%2F123-gost_type_a.html;" parent="x8cH7TtN86eXFYDbmNAZ-106" vertex="1">
          <mxGeometry y="130" width="160" height="26" as="geometry" />
        </mxCell>
        <mxCell id="x8cH7TtN86eXFYDbmNAZ-121" value="" style="endArrow=open;shadow=0;strokeWidth=1;rounded=0;endFill=1;elbow=vertical;exitX=1;exitY=0.5;exitDx=0;exitDy=0;entryX=0;entryY=0.5;entryDx=0;entryDy=0;edgeStyle=orthogonalEdgeStyle;fontFamily=GOST type A Regular;fontSource=https%3A%2F%2Fwebfonts.pro%2Flight-fonts%2F123-gost_type_a.html;" parent="WIyWlLk6GJQsqaUBKTNV-1" source="x8cH7TtN86eXFYDbmNAZ-83" target="x8cH7TtN86eXFYDbmNAZ-108" edge="1">
          <mxGeometry x="0.5" y="41" relative="1" as="geometry">
            <mxPoint x="1030" y="525" as="sourcePoint" />
            <mxPoint x="900" y="559" as="targetPoint" />
            <mxPoint x="-40" y="32" as="offset" />
            <Array as="points">
              <mxPoint x="970" y="549" />
              <mxPoint x="970" y="515" />
            </Array>
          </mxGeometry>
        </mxCell>
        <mxCell id="x8cH7TtN86eXFYDbmNAZ-122" value="1" style="resizable=0;align=left;verticalAlign=bottom;labelBackgroundColor=none;fontSize=12;fontFamily=GOST type A Regular;fontSource=https%3A%2F%2Fwebfonts.pro%2Flight-fonts%2F123-gost_type_a.html;" parent="x8cH7TtN86eXFYDbmNAZ-121" connectable="0" vertex="1">
          <mxGeometry x="-1" relative="1" as="geometry">
            <mxPoint x="10" y="-5" as="offset" />
          </mxGeometry>
        </mxCell>
        <mxCell id="x8cH7TtN86eXFYDbmNAZ-123" value="0..N" style="resizable=0;align=right;verticalAlign=bottom;labelBackgroundColor=none;fontSize=12;fontFamily=GOST type A Regular;fontSource=https%3A%2F%2Fwebfonts.pro%2Flight-fonts%2F123-gost_type_a.html;" parent="x8cH7TtN86eXFYDbmNAZ-121" connectable="0" vertex="1">
          <mxGeometry x="1" relative="1" as="geometry">
            <mxPoint x="-10" y="-5" as="offset" />
          </mxGeometry>
        </mxCell>
        <mxCell id="Imkv2x_XnemxmEfvhTAE-0" value="1" style="resizable=0;align=left;verticalAlign=bottom;labelBackgroundColor=none;fontSize=12;fontFamily=GOST type A Regular;fontSource=https%3A%2F%2Fwebfonts.pro%2Flight-fonts%2F123-gost_type_a.html;" parent="WIyWlLk6GJQsqaUBKTNV-1" connectable="0" vertex="1">
          <mxGeometry x="710" y="590" as="geometry">
            <mxPoint x="-4" y="-7" as="offset" />
          </mxGeometry>
        </mxCell>
        <mxCell id="frcLXEGGKrYD2IFF3KJO-86" value="Пользователь" style="swimlane;fontStyle=2;align=center;verticalAlign=top;childLayout=stackLayout;horizontal=1;startSize=26;horizontalStack=0;resizeParent=1;resizeLast=0;collapsible=1;marginBottom=0;rounded=0;shadow=0;strokeWidth=1;" parent="WIyWlLk6GJQsqaUBKTNV-1" vertex="1">
          <mxGeometry x="115" y="776" width="160" height="134" as="geometry">
            <mxRectangle x="230" y="140" width="160" height="26" as="alternateBounds" />
          </mxGeometry>
        </mxCell>
        <mxCell id="frcLXEGGKrYD2IFF3KJO-87" value="Имя" style="text;align=left;verticalAlign=top;spacingLeft=4;spacingRight=4;overflow=hidden;rotatable=0;points=[[0,0.5],[1,0.5]];portConstraint=eastwest;" parent="frcLXEGGKrYD2IFF3KJO-86" vertex="1">
          <mxGeometry y="26" width="160" height="26" as="geometry" />
        </mxCell>
        <mxCell id="frcLXEGGKrYD2IFF3KJO-88" value="Логин" style="text;align=left;verticalAlign=top;spacingLeft=4;spacingRight=4;overflow=hidden;rotatable=0;points=[[0,0.5],[1,0.5]];portConstraint=eastwest;rounded=0;shadow=0;html=0;" parent="frcLXEGGKrYD2IFF3KJO-86" vertex="1">
          <mxGeometry y="52" width="160" height="26" as="geometry" />
        </mxCell>
        <mxCell id="frcLXEGGKrYD2IFF3KJO-89" value="Пароль" style="text;align=left;verticalAlign=top;spacingLeft=4;spacingRight=4;overflow=hidden;rotatable=0;points=[[0,0.5],[1,0.5]];portConstraint=eastwest;rounded=0;shadow=0;html=0;" parent="frcLXEGGKrYD2IFF3KJO-86" vertex="1">
          <mxGeometry y="78" width="160" height="26" as="geometry" />
        </mxCell>
        <mxCell id="frcLXEGGKrYD2IFF3KJO-92" value="Роль(админ или нет)" style="text;align=left;verticalAlign=top;spacingLeft=4;spacingRight=4;overflow=hidden;rotatable=0;points=[[0,0.5],[1,0.5]];portConstraint=eastwest;rounded=0;shadow=0;html=0;" parent="frcLXEGGKrYD2IFF3KJO-86" vertex="1">
          <mxGeometry y="104" width="160" height="26" as="geometry" />
        </mxCell>
        <mxCell id="frcLXEGGKrYD2IFF3KJO-93" value="Уведомление" style="swimlane;fontStyle=2;align=center;verticalAlign=top;childLayout=stackLayout;horizontal=1;startSize=26;horizontalStack=0;resizeParent=1;resizeLast=0;collapsible=1;marginBottom=0;rounded=0;shadow=0;strokeWidth=1;" parent="WIyWlLk6GJQsqaUBKTNV-1" vertex="1">
          <mxGeometry x="115" y="1016" width="160" height="134" as="geometry">
            <mxRectangle x="230" y="140" width="160" height="26" as="alternateBounds" />
          </mxGeometry>
        </mxCell>
        <mxCell id="frcLXEGGKrYD2IFF3KJO-95" value="Имя пользователя" style="text;align=left;verticalAlign=top;spacingLeft=4;spacingRight=4;overflow=hidden;rotatable=0;points=[[0,0.5],[1,0.5]];portConstraint=eastwest;rounded=0;shadow=0;html=0;" parent="frcLXEGGKrYD2IFF3KJO-93" vertex="1">
          <mxGeometry y="26" width="160" height="26" as="geometry" />
        </mxCell>
        <mxCell id="frcLXEGGKrYD2IFF3KJO-96" value="Логин пользователя" style="text;align=left;verticalAlign=top;spacingLeft=4;spacingRight=4;overflow=hidden;rotatable=0;points=[[0,0.5],[1,0.5]];portConstraint=eastwest;rounded=0;shadow=0;html=0;" parent="frcLXEGGKrYD2IFF3KJO-93" vertex="1">
          <mxGeometry y="52" width="160" height="26" as="geometry" />
        </mxCell>
        <mxCell id="frcLXEGGKrYD2IFF3KJO-97" value="Телефон пользователя" style="text;align=left;verticalAlign=top;spacingLeft=4;spacingRight=4;overflow=hidden;rotatable=0;points=[[0,0.5],[1,0.5]];portConstraint=eastwest;rounded=0;shadow=0;html=0;" parent="frcLXEGGKrYD2IFF3KJO-93" vertex="1">
          <mxGeometry y="78" width="160" height="26" as="geometry" />
        </mxCell>
        <mxCell id="frcLXEGGKrYD2IFF3KJO-98" value="Желаемый вид попугая" style="text;align=left;verticalAlign=top;spacingLeft=4;spacingRight=4;overflow=hidden;rotatable=0;points=[[0,0.5],[1,0.5]];portConstraint=eastwest;rounded=0;shadow=0;html=0;" parent="frcLXEGGKrYD2IFF3KJO-93" vertex="1">
          <mxGeometry y="104" width="160" height="26" as="geometry" />
        </mxCell>
        <mxCell id="frcLXEGGKrYD2IFF3KJO-101" value="" style="endArrow=open;shadow=0;strokeWidth=1;rounded=0;endFill=1;edgeStyle=elbowEdgeStyle;elbow=vertical;exitX=0;exitY=0.5;exitDx=0;exitDy=0;entryX=0;entryY=0.5;entryDx=0;entryDy=0;" parent="WIyWlLk6GJQsqaUBKTNV-1" source="frcLXEGGKrYD2IFF3KJO-87" target="frcLXEGGKrYD2IFF3KJO-95" edge="1">
          <mxGeometry x="0.5" y="41" relative="1" as="geometry">
            <mxPoint x="285" y="877" as="sourcePoint" />
            <mxPoint x="413" y="877" as="targetPoint" />
            <mxPoint x="-40" y="32" as="offset" />
            <Array as="points">
              <mxPoint x="45" y="946" />
            </Array>
          </mxGeometry>
        </mxCell>
        <mxCell id="frcLXEGGKrYD2IFF3KJO-102" value="1" style="resizable=0;align=left;verticalAlign=bottom;labelBackgroundColor=none;fontSize=12;" parent="frcLXEGGKrYD2IFF3KJO-101" connectable="0" vertex="1">
          <mxGeometry x="-1" relative="1" as="geometry">
            <mxPoint x="-30" y="-9" as="offset" />
          </mxGeometry>
        </mxCell>
        <mxCell id="frcLXEGGKrYD2IFF3KJO-103" value="0..N" style="resizable=0;align=right;verticalAlign=bottom;labelBackgroundColor=none;fontSize=12;" parent="frcLXEGGKrYD2IFF3KJO-101" connectable="0" vertex="1">
          <mxGeometry x="1" relative="1" as="geometry">
            <mxPoint x="-10" y="-5" as="offset" />
          </mxGeometry>
        </mxCell>
        <mxCell id="frcLXEGGKrYD2IFF3KJO-104" value="Заказ" style="swimlane;fontStyle=2;align=center;verticalAlign=top;childLayout=stackLayout;horizontal=1;startSize=26;horizontalStack=0;resizeParent=1;resizeLast=0;collapsible=1;marginBottom=0;rounded=0;shadow=0;strokeWidth=1;" parent="WIyWlLk6GJQsqaUBKTNV-1" vertex="1">
          <mxGeometry x="405" y="750" width="160" height="230" as="geometry">
            <mxRectangle x="230" y="140" width="160" height="26" as="alternateBounds" />
          </mxGeometry>
        </mxCell>
        <mxCell id="frcLXEGGKrYD2IFF3KJO-106" value="Попугай или клетка, &#xa;которые заказали &#xa;(либо то, либо то)" style="text;align=left;verticalAlign=top;spacingLeft=4;spacingRight=4;overflow=hidden;rotatable=0;points=[[0,0.5],[1,0.5]];portConstraint=eastwest;rounded=0;shadow=0;html=0;" parent="frcLXEGGKrYD2IFF3KJO-104" vertex="1">
          <mxGeometry y="26" width="160" height="54" as="geometry" />
        </mxCell>
        <mxCell id="frcLXEGGKrYD2IFF3KJO-107" value="Пользователь, заказавший" style="text;align=left;verticalAlign=top;spacingLeft=4;spacingRight=4;overflow=hidden;rotatable=0;points=[[0,0.5],[1,0.5]];portConstraint=eastwest;rounded=0;shadow=0;html=0;" parent="frcLXEGGKrYD2IFF3KJO-104" vertex="1">
          <mxGeometry y="80" width="160" height="26" as="geometry" />
        </mxCell>
        <mxCell id="frcLXEGGKrYD2IFF3KJO-109" value="Цена" style="text;align=left;verticalAlign=top;spacingLeft=4;spacingRight=4;overflow=hidden;rotatable=0;points=[[0,0.5],[1,0.5]];portConstraint=eastwest;rounded=0;shadow=0;html=0;" parent="frcLXEGGKrYD2IFF3KJO-104" vertex="1">
          <mxGeometry y="106" width="160" height="26" as="geometry" />
        </mxCell>
        <mxCell id="frcLXEGGKrYD2IFF3KJO-111" value="Состояние&#xa;(завершен или нет)" style="text;align=left;verticalAlign=top;spacingLeft=4;spacingRight=4;overflow=hidden;rotatable=0;points=[[0,0.5],[1,0.5]];portConstraint=eastwest;rounded=0;shadow=0;html=0;" parent="frcLXEGGKrYD2IFF3KJO-104" vertex="1">
          <mxGeometry y="132" width="160" height="44" as="geometry" />
        </mxCell>
        <mxCell id="frcLXEGGKrYD2IFF3KJO-112" value="Успешность&#xa;(принят или нет)" style="text;align=left;verticalAlign=top;spacingLeft=4;spacingRight=4;overflow=hidden;rotatable=0;points=[[0,0.5],[1,0.5]];portConstraint=eastwest;rounded=0;shadow=0;html=0;" parent="frcLXEGGKrYD2IFF3KJO-104" vertex="1">
          <mxGeometry y="176" width="160" height="40" as="geometry" />
        </mxCell>
        <mxCell id="frcLXEGGKrYD2IFF3KJO-113" value="" style="endArrow=open;shadow=0;strokeWidth=1;rounded=0;endFill=1;edgeStyle=elbowEdgeStyle;elbow=vertical;exitX=1;exitY=0.5;exitDx=0;exitDy=0;entryX=0.013;entryY=0.722;entryDx=0;entryDy=0;entryPerimeter=0;" parent="WIyWlLk6GJQsqaUBKTNV-1" source="frcLXEGGKrYD2IFF3KJO-87" target="frcLXEGGKrYD2IFF3KJO-106" edge="1">
          <mxGeometry x="0.5" y="41" relative="1" as="geometry">
            <mxPoint x="285" y="825" as="sourcePoint" />
            <mxPoint x="365" y="877" as="targetPoint" />
            <mxPoint x="-40" y="32" as="offset" />
            <Array as="points" />
          </mxGeometry>
        </mxCell>
        <mxCell id="frcLXEGGKrYD2IFF3KJO-114" value="1" style="resizable=0;align=left;verticalAlign=bottom;labelBackgroundColor=none;fontSize=12;" parent="frcLXEGGKrYD2IFF3KJO-113" connectable="0" vertex="1">
          <mxGeometry x="-1" relative="1" as="geometry">
            <mxPoint x="10" y="-9" as="offset" />
          </mxGeometry>
        </mxCell>
        <mxCell id="frcLXEGGKrYD2IFF3KJO-115" value="0..N" style="resizable=0;align=right;verticalAlign=bottom;labelBackgroundColor=none;fontSize=12;" parent="WIyWlLk6GJQsqaUBKTNV-1" connectable="0" vertex="1">
          <mxGeometry x="395" y="836" as="geometry" />
        </mxCell>
        <mxCell id="frcLXEGGKrYD2IFF3KJO-116" value="Клетка" style="swimlane;fontStyle=2;align=center;verticalAlign=top;childLayout=stackLayout;horizontal=1;startSize=26;horizontalStack=0;resizeParent=1;resizeLast=0;collapsible=1;marginBottom=0;rounded=0;shadow=0;strokeWidth=1;" parent="WIyWlLk6GJQsqaUBKTNV-1" vertex="1">
          <mxGeometry x="405" y="1046" width="160" height="164" as="geometry">
            <mxRectangle x="230" y="140" width="160" height="26" as="alternateBounds" />
          </mxGeometry>
        </mxCell>
        <mxCell id="frcLXEGGKrYD2IFF3KJO-117" value="Название" style="text;align=left;verticalAlign=top;spacingLeft=4;spacingRight=4;overflow=hidden;rotatable=0;points=[[0,0.5],[1,0.5]];portConstraint=eastwest;" parent="frcLXEGGKrYD2IFF3KJO-116" vertex="1">
          <mxGeometry y="26" width="160" height="26" as="geometry" />
        </mxCell>
        <mxCell id="frcLXEGGKrYD2IFF3KJO-118" value="Вид попугая" style="text;align=left;verticalAlign=top;spacingLeft=4;spacingRight=4;overflow=hidden;rotatable=0;points=[[0,0.5],[1,0.5]];portConstraint=eastwest;rounded=0;shadow=0;html=0;" parent="frcLXEGGKrYD2IFF3KJO-116" vertex="1">
          <mxGeometry y="52" width="160" height="26" as="geometry" />
        </mxCell>
        <mxCell id="frcLXEGGKrYD2IFF3KJO-119" value="Цена" style="text;align=left;verticalAlign=top;spacingLeft=4;spacingRight=4;overflow=hidden;rotatable=0;points=[[0,0.5],[1,0.5]];portConstraint=eastwest;rounded=0;shadow=0;html=0;" parent="frcLXEGGKrYD2IFF3KJO-116" vertex="1">
          <mxGeometry y="78" width="160" height="26" as="geometry" />
        </mxCell>
        <mxCell id="frcLXEGGKrYD2IFF3KJO-120" value="Изображение" style="text;align=left;verticalAlign=top;spacingLeft=4;spacingRight=4;overflow=hidden;rotatable=0;points=[[0,0.5],[1,0.5]];portConstraint=eastwest;rounded=0;shadow=0;html=0;" parent="frcLXEGGKrYD2IFF3KJO-116" vertex="1">
          <mxGeometry y="104" width="160" height="26" as="geometry" />
        </mxCell>
        <mxCell id="frcLXEGGKrYD2IFF3KJO-121" value="Количество" style="text;align=left;verticalAlign=top;spacingLeft=4;spacingRight=4;overflow=hidden;rotatable=0;points=[[0,0.5],[1,0.5]];portConstraint=eastwest;rounded=0;shadow=0;html=0;" parent="frcLXEGGKrYD2IFF3KJO-116" vertex="1">
          <mxGeometry y="130" width="160" height="26" as="geometry" />
        </mxCell>
        <mxCell id="frcLXEGGKrYD2IFF3KJO-125" value="" style="endArrow=open;shadow=0;strokeWidth=1;rounded=0;endFill=1;edgeStyle=elbowEdgeStyle;elbow=vertical;exitX=0;exitY=0.769;exitDx=0;exitDy=0;exitPerimeter=0;" parent="WIyWlLk6GJQsqaUBKTNV-1" source="frcLXEGGKrYD2IFF3KJO-117" target="frcLXEGGKrYD2IFF3KJO-111" edge="1">
          <mxGeometry x="0.5" y="41" relative="1" as="geometry">
            <mxPoint x="355" y="896" as="sourcePoint" />
            <mxPoint x="405" y="841" as="targetPoint" />
            <mxPoint x="-40" y="32" as="offset" />
            <Array as="points">
              <mxPoint x="350" y="990" />
              <mxPoint x="330" y="970" />
            </Array>
          </mxGeometry>
        </mxCell>
        <mxCell id="frcLXEGGKrYD2IFF3KJO-126" value="0..1" style="resizable=0;align=left;verticalAlign=bottom;labelBackgroundColor=none;fontSize=12;" parent="frcLXEGGKrYD2IFF3KJO-125" connectable="0" vertex="1">
          <mxGeometry x="-1" relative="1" as="geometry">
            <mxPoint x="-30" y="-9" as="offset" />
          </mxGeometry>
        </mxCell>
        <mxCell id="frcLXEGGKrYD2IFF3KJO-127" value="0..N" style="resizable=0;align=right;verticalAlign=bottom;labelBackgroundColor=none;fontSize=12;" parent="frcLXEGGKrYD2IFF3KJO-125" connectable="0" vertex="1">
          <mxGeometry x="1" relative="1" as="geometry">
            <mxPoint x="-10" y="-4" as="offset" />
          </mxGeometry>
        </mxCell>
        <mxCell id="frcLXEGGKrYD2IFF3KJO-128" value="Попугай" style="swimlane;fontStyle=2;align=center;verticalAlign=top;childLayout=stackLayout;horizontal=1;startSize=26;horizontalStack=0;resizeParent=1;resizeLast=0;collapsible=1;marginBottom=0;rounded=0;shadow=0;strokeWidth=1;" parent="WIyWlLk6GJQsqaUBKTNV-1" vertex="1">
          <mxGeometry x="705" y="776" width="160" height="284" as="geometry">
            <mxRectangle x="230" y="140" width="160" height="26" as="alternateBounds" />
          </mxGeometry>
        </mxCell>
        <mxCell id="frcLXEGGKrYD2IFF3KJO-129" value="Имя" style="text;align=left;verticalAlign=top;spacingLeft=4;spacingRight=4;overflow=hidden;rotatable=0;points=[[0,0.5],[1,0.5]];portConstraint=eastwest;" parent="frcLXEGGKrYD2IFF3KJO-128" vertex="1">
          <mxGeometry y="26" width="160" height="26" as="geometry" />
        </mxCell>
        <mxCell id="frcLXEGGKrYD2IFF3KJO-130" value="Вид" style="text;align=left;verticalAlign=top;spacingLeft=4;spacingRight=4;overflow=hidden;rotatable=0;points=[[0,0.5],[1,0.5]];portConstraint=eastwest;rounded=0;shadow=0;html=0;" parent="frcLXEGGKrYD2IFF3KJO-128" vertex="1">
          <mxGeometry y="52" width="160" height="26" as="geometry" />
        </mxCell>
        <mxCell id="frcLXEGGKrYD2IFF3KJO-131" value="Имя поставщика" style="text;align=left;verticalAlign=top;spacingLeft=4;spacingRight=4;overflow=hidden;rotatable=0;points=[[0,0.5],[1,0.5]];portConstraint=eastwest;rounded=0;shadow=0;html=0;" parent="frcLXEGGKrYD2IFF3KJO-128" vertex="1">
          <mxGeometry y="78" width="160" height="26" as="geometry" />
        </mxCell>
        <mxCell id="frcLXEGGKrYD2IFF3KJO-132" value="Описание" style="text;align=left;verticalAlign=top;spacingLeft=4;spacingRight=4;overflow=hidden;rotatable=0;points=[[0,0.5],[1,0.5]];portConstraint=eastwest;rounded=0;shadow=0;html=0;" parent="frcLXEGGKrYD2IFF3KJO-128" vertex="1">
          <mxGeometry y="104" width="160" height="26" as="geometry" />
        </mxCell>
        <mxCell id="frcLXEGGKrYD2IFF3KJO-133" value="Картинка" style="text;align=left;verticalAlign=top;spacingLeft=4;spacingRight=4;overflow=hidden;rotatable=0;points=[[0,0.5],[1,0.5]];portConstraint=eastwest;rounded=0;shadow=0;html=0;" parent="frcLXEGGKrYD2IFF3KJO-128" vertex="1">
          <mxGeometry y="130" width="160" height="26" as="geometry" />
        </mxCell>
        <mxCell id="frcLXEGGKrYD2IFF3KJO-134" value="Размер" style="text;align=left;verticalAlign=top;spacingLeft=4;spacingRight=4;overflow=hidden;rotatable=0;points=[[0,0.5],[1,0.5]];portConstraint=eastwest;rounded=0;shadow=0;html=0;" parent="frcLXEGGKrYD2IFF3KJO-128" vertex="1">
          <mxGeometry y="156" width="160" height="26" as="geometry" />
        </mxCell>
        <mxCell id="frcLXEGGKrYD2IFF3KJO-135" value="Вес" style="text;align=left;verticalAlign=top;spacingLeft=4;spacingRight=4;overflow=hidden;rotatable=0;points=[[0,0.5],[1,0.5]];portConstraint=eastwest;rounded=0;shadow=0;html=0;" parent="frcLXEGGKrYD2IFF3KJO-128" vertex="1">
          <mxGeometry y="182" width="160" height="26" as="geometry" />
        </mxCell>
        <mxCell id="frcLXEGGKrYD2IFF3KJO-136" value="Цена" style="text;align=left;verticalAlign=top;spacingLeft=4;spacingRight=4;overflow=hidden;rotatable=0;points=[[0,0.5],[1,0.5]];portConstraint=eastwest;rounded=0;shadow=0;html=0;" parent="frcLXEGGKrYD2IFF3KJO-128" vertex="1">
          <mxGeometry y="208" width="160" height="26" as="geometry" />
        </mxCell>
        <mxCell id="frcLXEGGKrYD2IFF3KJO-137" value="Доступность&#xa;(в наличии или нет)" style="text;align=left;verticalAlign=top;spacingLeft=4;spacingRight=4;overflow=hidden;rotatable=0;points=[[0,0.5],[1,0.5]];portConstraint=eastwest;rounded=0;shadow=0;html=0;" parent="frcLXEGGKrYD2IFF3KJO-128" vertex="1">
          <mxGeometry y="234" width="160" height="46" as="geometry" />
        </mxCell>
        <mxCell id="frcLXEGGKrYD2IFF3KJO-142" value="" style="endArrow=open;shadow=0;strokeWidth=1;rounded=0;endFill=1;edgeStyle=elbowEdgeStyle;elbow=vertical;exitX=0;exitY=0.5;exitDx=0;exitDy=0;entryX=1;entryY=0.833;entryDx=0;entryDy=0;entryPerimeter=0;" parent="WIyWlLk6GJQsqaUBKTNV-1" source="frcLXEGGKrYD2IFF3KJO-129" target="frcLXEGGKrYD2IFF3KJO-106" edge="1">
          <mxGeometry x="0.5" y="41" relative="1" as="geometry">
            <mxPoint x="635" y="890" as="sourcePoint" />
            <mxPoint x="565" y="810" as="targetPoint" />
            <mxPoint x="-40" y="32" as="offset" />
            <Array as="points">
              <mxPoint x="630" y="821" />
            </Array>
          </mxGeometry>
        </mxCell>
        <mxCell id="frcLXEGGKrYD2IFF3KJO-143" value="0..1" style="resizable=0;align=left;verticalAlign=bottom;labelBackgroundColor=none;fontSize=12;" parent="frcLXEGGKrYD2IFF3KJO-142" connectable="0" vertex="1">
          <mxGeometry x="-1" relative="1" as="geometry">
            <mxPoint x="-35" y="-5" as="offset" />
          </mxGeometry>
        </mxCell>
        <mxCell id="frcLXEGGKrYD2IFF3KJO-144" value="0..N" style="resizable=0;align=right;verticalAlign=bottom;labelBackgroundColor=none;fontSize=12;" parent="frcLXEGGKrYD2IFF3KJO-142" connectable="0" vertex="1">
          <mxGeometry x="1" relative="1" as="geometry">
            <mxPoint x="30" y="-5" as="offset" />
          </mxGeometry>
        </mxCell>
        <mxCell id="frcLXEGGKrYD2IFF3KJO-145" value="Вид" style="swimlane;fontStyle=2;align=center;verticalAlign=top;childLayout=stackLayout;horizontal=1;startSize=26;horizontalStack=0;resizeParent=1;resizeLast=0;collapsible=1;marginBottom=0;rounded=0;shadow=0;strokeWidth=1;" parent="WIyWlLk6GJQsqaUBKTNV-1" vertex="1">
          <mxGeometry x="705" y="1170" width="160" height="90" as="geometry">
            <mxRectangle x="230" y="140" width="160" height="26" as="alternateBounds" />
          </mxGeometry>
        </mxCell>
        <mxCell id="frcLXEGGKrYD2IFF3KJO-147" value="Название" style="text;align=left;verticalAlign=top;spacingLeft=4;spacingRight=4;overflow=hidden;rotatable=0;points=[[0,0.5],[1,0.5]];portConstraint=eastwest;rounded=0;shadow=0;html=0;" parent="frcLXEGGKrYD2IFF3KJO-145" vertex="1">
          <mxGeometry y="26" width="160" height="26" as="geometry" />
        </mxCell>
        <mxCell id="frcLXEGGKrYD2IFF3KJO-148" value="Продолжительность жизни" style="text;align=left;verticalAlign=top;spacingLeft=4;spacingRight=4;overflow=hidden;rotatable=0;points=[[0,0.5],[1,0.5]];portConstraint=eastwest;rounded=0;shadow=0;html=0;" parent="frcLXEGGKrYD2IFF3KJO-145" vertex="1">
          <mxGeometry y="52" width="160" height="26" as="geometry" />
        </mxCell>
        <mxCell id="frcLXEGGKrYD2IFF3KJO-149" value="" style="endArrow=open;shadow=0;strokeWidth=1;rounded=0;endFill=1;elbow=vertical;exitX=0;exitY=0.5;exitDx=0;exitDy=0;entryX=1;entryY=0.5;entryDx=0;entryDy=0;edgeStyle=orthogonalEdgeStyle;" parent="WIyWlLk6GJQsqaUBKTNV-1" target="frcLXEGGKrYD2IFF3KJO-119" edge="1">
          <mxGeometry x="0.5" y="41" relative="1" as="geometry">
            <mxPoint x="705" y="1209" as="sourcePoint" />
            <mxPoint x="535" y="1210" as="targetPoint" />
            <mxPoint x="-40" y="32" as="offset" />
            <Array as="points">
              <mxPoint x="705" y="1220" />
              <mxPoint x="635" y="1220" />
              <mxPoint x="635" y="1137" />
            </Array>
          </mxGeometry>
        </mxCell>
        <mxCell id="frcLXEGGKrYD2IFF3KJO-150" value="0..N" style="resizable=0;align=right;verticalAlign=bottom;labelBackgroundColor=none;fontSize=12;" parent="frcLXEGGKrYD2IFF3KJO-149" connectable="0" vertex="1">
          <mxGeometry x="1" relative="1" as="geometry">
            <mxPoint x="30" y="-5" as="offset" />
          </mxGeometry>
        </mxCell>
        <mxCell id="frcLXEGGKrYD2IFF3KJO-151" value="" style="endArrow=open;shadow=0;strokeWidth=1;rounded=0;endFill=1;elbow=vertical;entryX=0;entryY=0.5;entryDx=0;entryDy=0;edgeStyle=orthogonalEdgeStyle;" parent="WIyWlLk6GJQsqaUBKTNV-1" target="frcLXEGGKrYD2IFF3KJO-135" edge="1">
          <mxGeometry x="0.5" y="41" relative="1" as="geometry">
            <mxPoint x="705" y="1210" as="sourcePoint" />
            <mxPoint x="575" y="1147" as="targetPoint" />
            <mxPoint x="-40" y="32" as="offset" />
            <Array as="points">
              <mxPoint x="705" y="1210" />
              <mxPoint x="665" y="1210" />
              <mxPoint x="665" y="971" />
            </Array>
          </mxGeometry>
        </mxCell>
        <mxCell id="frcLXEGGKrYD2IFF3KJO-152" value="1" style="resizable=0;align=left;verticalAlign=bottom;labelBackgroundColor=none;fontSize=12;" parent="frcLXEGGKrYD2IFF3KJO-151" connectable="0" vertex="1">
          <mxGeometry x="-1" relative="1" as="geometry">
            <mxPoint x="-20" y="-5" as="offset" />
          </mxGeometry>
        </mxCell>
        <mxCell id="frcLXEGGKrYD2IFF3KJO-153" value="0..N" style="resizable=0;align=right;verticalAlign=bottom;labelBackgroundColor=none;fontSize=12;" parent="frcLXEGGKrYD2IFF3KJO-151" connectable="0" vertex="1">
          <mxGeometry x="1" relative="1" as="geometry">
            <mxPoint x="-10" y="-5" as="offset" />
          </mxGeometry>
        </mxCell>
        <mxCell id="frcLXEGGKrYD2IFF3KJO-154" value="Поставщик" style="swimlane;fontStyle=2;align=center;verticalAlign=top;childLayout=stackLayout;horizontal=1;startSize=26;horizontalStack=0;resizeParent=1;resizeLast=0;collapsible=1;marginBottom=0;rounded=0;shadow=0;strokeWidth=1;" parent="WIyWlLk6GJQsqaUBKTNV-1" vertex="1">
          <mxGeometry x="985" y="810" width="160" height="110" as="geometry">
            <mxRectangle x="230" y="140" width="160" height="26" as="alternateBounds" />
          </mxGeometry>
        </mxCell>
        <mxCell id="frcLXEGGKrYD2IFF3KJO-155" value="Наименование" style="text;align=left;verticalAlign=top;spacingLeft=4;spacingRight=4;overflow=hidden;rotatable=0;points=[[0,0.5],[1,0.5]];portConstraint=eastwest;" parent="frcLXEGGKrYD2IFF3KJO-154" vertex="1">
          <mxGeometry y="26" width="160" height="26" as="geometry" />
        </mxCell>
        <mxCell id="frcLXEGGKrYD2IFF3KJO-156" value="Описание" style="text;align=left;verticalAlign=top;spacingLeft=4;spacingRight=4;overflow=hidden;rotatable=0;points=[[0,0.5],[1,0.5]];portConstraint=eastwest;rounded=0;shadow=0;html=0;" parent="frcLXEGGKrYD2IFF3KJO-154" vertex="1">
          <mxGeometry y="52" width="160" height="26" as="geometry" />
        </mxCell>
        <mxCell id="frcLXEGGKrYD2IFF3KJO-157" value="История" style="text;align=left;verticalAlign=top;spacingLeft=4;spacingRight=4;overflow=hidden;rotatable=0;points=[[0,0.5],[1,0.5]];portConstraint=eastwest;rounded=0;shadow=0;html=0;" parent="frcLXEGGKrYD2IFF3KJO-154" vertex="1">
          <mxGeometry y="78" width="160" height="26" as="geometry" />
        </mxCell>
        <mxCell id="frcLXEGGKrYD2IFF3KJO-159" value="" style="endArrow=open;shadow=0;strokeWidth=1;rounded=0;endFill=1;elbow=vertical;exitX=0;exitY=0.5;exitDx=0;exitDy=0;entryX=1;entryY=0.5;entryDx=0;entryDy=0;edgeStyle=orthogonalEdgeStyle;" parent="WIyWlLk6GJQsqaUBKTNV-1" source="frcLXEGGKrYD2IFF3KJO-155" target="frcLXEGGKrYD2IFF3KJO-131" edge="1">
          <mxGeometry x="0.5" y="41" relative="1" as="geometry">
            <mxPoint x="995" y="958" as="sourcePoint" />
            <mxPoint x="865" y="1074.9999999999998" as="targetPoint" />
            <mxPoint x="-40" y="32" as="offset" />
            <Array as="points">
              <mxPoint x="985" y="850" />
              <mxPoint x="915" y="850" />
              <mxPoint x="915" y="867" />
            </Array>
          </mxGeometry>
        </mxCell>
        <mxCell id="frcLXEGGKrYD2IFF3KJO-160" value="1" style="resizable=0;align=left;verticalAlign=bottom;labelBackgroundColor=none;fontSize=12;" parent="frcLXEGGKrYD2IFF3KJO-159" connectable="0" vertex="1">
          <mxGeometry x="-1" relative="1" as="geometry">
            <mxPoint x="-20" y="-5" as="offset" />
          </mxGeometry>
        </mxCell>
        <mxCell id="frcLXEGGKrYD2IFF3KJO-161" value="0..N" style="resizable=0;align=right;verticalAlign=bottom;labelBackgroundColor=none;fontSize=12;" parent="frcLXEGGKrYD2IFF3KJO-159" connectable="0" vertex="1">
          <mxGeometry x="1" relative="1" as="geometry">
            <mxPoint x="30" y="-5" as="offset" />
          </mxGeometry>
        </mxCell>
        <mxCell id="frcLXEGGKrYD2IFF3KJO-162" value="Энкиклопедия" style="swimlane;fontStyle=2;align=center;verticalAlign=top;childLayout=stackLayout;horizontal=1;startSize=26;horizontalStack=0;resizeParent=1;resizeLast=0;collapsible=1;marginBottom=0;rounded=0;shadow=0;strokeWidth=1;" parent="WIyWlLk6GJQsqaUBKTNV-1" vertex="1">
          <mxGeometry x="995" y="1110" width="160" height="120" as="geometry">
            <mxRectangle x="230" y="140" width="160" height="26" as="alternateBounds" />
          </mxGeometry>
        </mxCell>
        <mxCell id="frcLXEGGKrYD2IFF3KJO-163" value="Вид попугая" style="text;align=left;verticalAlign=top;spacingLeft=4;spacingRight=4;overflow=hidden;rotatable=0;points=[[0,0.5],[1,0.5]];portConstraint=eastwest;" parent="frcLXEGGKrYD2IFF3KJO-162" vertex="1">
          <mxGeometry y="26" width="160" height="26" as="geometry" />
        </mxCell>
        <mxCell id="frcLXEGGKrYD2IFF3KJO-166" value="Продолжительность жизни" style="text;align=left;verticalAlign=top;spacingLeft=4;spacingRight=4;overflow=hidden;rotatable=0;points=[[0,0.5],[1,0.5]];portConstraint=eastwest;rounded=0;shadow=0;html=0;" parent="frcLXEGGKrYD2IFF3KJO-162" vertex="1">
          <mxGeometry y="52" width="160" height="26" as="geometry" />
        </mxCell>
        <mxCell id="frcLXEGGKrYD2IFF3KJO-167" value="Описание" style="text;align=left;verticalAlign=top;spacingLeft=4;spacingRight=4;overflow=hidden;rotatable=0;points=[[0,0.5],[1,0.5]];portConstraint=eastwest;rounded=0;shadow=0;html=0;" parent="frcLXEGGKrYD2IFF3KJO-162" vertex="1">
          <mxGeometry y="78" width="160" height="26" as="geometry" />
        </mxCell>
        <mxCell id="frcLXEGGKrYD2IFF3KJO-168" value="" style="endArrow=open;shadow=0;strokeWidth=1;rounded=0;endFill=1;elbow=vertical;exitX=1;exitY=0.5;exitDx=0;exitDy=0;entryX=0;entryY=0.5;entryDx=0;entryDy=0;edgeStyle=orthogonalEdgeStyle;" parent="WIyWlLk6GJQsqaUBKTNV-1" edge="1">
          <mxGeometry x="0.5" y="41" relative="1" as="geometry">
            <mxPoint x="865" y="1209" as="sourcePoint" />
            <mxPoint x="995" y="1174.9999999999998" as="targetPoint" />
            <mxPoint x="-40" y="32" as="offset" />
            <Array as="points">
              <mxPoint x="945" y="1209" />
              <mxPoint x="945" y="1175" />
            </Array>
          </mxGeometry>
        </mxCell>
        <mxCell id="frcLXEGGKrYD2IFF3KJO-169" value="1" style="resizable=0;align=left;verticalAlign=bottom;labelBackgroundColor=none;fontSize=12;" parent="frcLXEGGKrYD2IFF3KJO-168" connectable="0" vertex="1">
          <mxGeometry x="-1" relative="1" as="geometry">
            <mxPoint x="10" y="-5" as="offset" />
          </mxGeometry>
        </mxCell>
        <mxCell id="frcLXEGGKrYD2IFF3KJO-170" value="0..N" style="resizable=0;align=right;verticalAlign=bottom;labelBackgroundColor=none;fontSize=12;" parent="frcLXEGGKrYD2IFF3KJO-168" connectable="0" vertex="1">
          <mxGeometry x="1" relative="1" as="geometry">
            <mxPoint x="-10" y="-5" as="offset" />
          </mxGeometry>
        </mxCell>
        <mxCell id="frcLXEGGKrYD2IFF3KJO-171" value="1" style="resizable=0;align=left;verticalAlign=bottom;labelBackgroundColor=none;fontSize=12;" parent="WIyWlLk6GJQsqaUBKTNV-1" connectable="0" vertex="1">
          <mxGeometry x="685" y="1250" as="geometry">
            <mxPoint x="-4" y="-7" as="offset" />
          </mxGeometry>
        </mxCell>
      </root>
    </mxGraphModel>
  </diagram>
</mxfile>
